{
  "accessors": [
    {
      "bufferView": 2,
      "componentType": 5126,
      "count": 4466,
      "max": [
        2.8625109195709229,
        5.6763219833374023,
        9.1604833602905273
      ],
      "min": [
        -3.5292699337005615,
        -5.3016409873962402,
        0.83388698101043701
      ],
      "type": "VEC3"
    },
    {
      "bufferView": 2,
      "byteOffset": 53592,
      "componentType": 5126,
      "count": 4466,
      "max": [
        0.99996966123580933,
        0.99406588077545166,
        0.97585499286651611
      ],
      "min": [
        -0.99996966123580933,
        -0.99406564235687256,
        -0.97585433721542358
      ],
      "type": "VEC3"
    },
    {
      "bufferView": 3,
      "componentType": 5126,
      "count": 4466,
      "max": [
        0,
        0,
        0,
        1
      ],
      "min": [
        0,
        0,
        0,
        1
      ],
      "type": "VEC4"
    },
    {
      "bufferView": 1,
      "componentType": 5126,
      "count": 4466,
      "max": [
        0.99414098262786865,
        0.5
      ],
      "min": [
        0.87695300579071045,
        0.5
      ],
      "type": "VEC2"
    },
    {
      "bufferView": 0,
      "componentType": 5125,
      "count": 9360,
      "max": [
        4465
      ],
      "min": [
        0
      ],
      "type": "SCALAR"
    },
    {
      "bufferView": 2,
      "byteOffset": 107184,
      "componentType": 5126,
      "count": 12616,
      "max": [
        0.79403400421142578,
        1.4891170263290405,
        9.9762554168701172
      ],
      "min": [
        -4.1759672164916992,
        -6.451664924621582,
        3.51751708984375
      ],
      "type": "VEC3"
    },
    {
      "bufferView": 2,
      "byteOffset": 258576,
      "componentType": 5126,
      "count": 12616,
      "max": [
        0.99996966123580933,
        0.96653634309768677,
        0.96656835079193115
      ],
      "min": [
        -0.99996966123580933,
        -0.96653789281845093,
        -0.96656835079193115
      ],
      "type": "VEC3"
    },
    {
      "bufferView": 3,
      "byteOffset": 71456,
      "componentType": 5126,
      "count": 12616,
      "max": [
        0.99997007846832275,
        0.96952235698699951,
        0.96656578779220581,
        1
      ],
      "min": [
        -0.99997007846832275,
        -0.99995416402816772,
        -0.96656781435012817,
        1
      ],
      "type": "VEC4"
    },
    {
      "bufferView": 1,
      "byteOffset": 35728,
      "componentType": 5126,
      "count": 12616,
      "max": [
        0.99405002593994141,
        0.99404901266098022
      ],
      "min": [
        0.005950000137090683,
        0.0059509999118745327
      ],
      "type": "VEC2"
    },
    {
      "bufferView": 0,
      "byteOffset": 37440,
      "componentType": 5125,
      "count": 20766,
      "max": [
        12615
      ],
      "min": [
        0
      ],
      "type": "SCALAR"
    },
    {
      "bufferView": 2,
      "byteOffset": 409968,
      "componentType": 5126,
      "count": 4386,
      "max": [
        2.954056978225708,
        -7.5775752067565918,
        10.740269660949707
      ],
      "min": [
        -2.6472270488739014,
        -8.7151288986206055,
        3.3045039176940918
      ],
      "type": "VEC3"
    },
    {
      "bufferView": 2,
      "byteOffset": 462600,
      "componentType": 5126,
      "count": 4386,
      "max": [
        0.99996966123580933,
        0.99594765901565552,
        0.99597722291946411
      ],
      "min": [
        -0.99996966123580933,
        -0.99594765901565552,
        -0.99597722291946411
      ],
      "type": "VEC3"
    },
    {
      "bufferView": 3,
      "byteOffset": 273312,
      "componentType": 5126,
      "count": 4386,
      "max": [
        0,
        0,
        0,
        1
      ],
      "min": [
        0,
        0,
        0,
        1
      ],
      "type": "VEC4"
    },
    {
      "bufferView": 1,
      "byteOffset": 136656,
      "componentType": 5126,
      "count": 4386,
      "max": [
        0.90429699420928955,
        0.5
      ],
      "min": [
        0.84570300579071045,
        0.5
      ],
      "type": "VEC2"
    },
    {
      "bufferView": 0,
      "byteOffset": 120504,
      "componentType": 5125,
      "count": 9228,
      "max": [
        4385
      ],
      "min": [
        0
      ],
      "type": "SCALAR"
    },
    {
      "bufferView": 2,
      "byteOffset": 515232,
      "componentType": 5126,
      "count": 120,
      "max": [
        -0.025766000151634216,
        1.3123339414596558,
        5.0469532012939453
      ],
      "min": [
        -1.2857999801635742,
        0.024775000289082527,
        3.8028109073638916
      ],
      "type": "VEC3"
    },
    {
      "bufferView": 2,
      "byteOffset": 516672,
      "componentType": 5126,
      "count": 120,
      "max": [
        0.69530123472213745,
        0.83585512638092041,
        0.78515535593032837
      ],
      "min": [
        -0.69530463218688965,
        -0.83585381507873535,
        -0.78515535593032837
      ],
      "type": "VEC3"
    },
    {
      "bufferView": 3,
      "byteOffset": 343488,
      "componentType": 5126,
      "count": 120,
      "max": [
        0,
        0,
        0,
        1
      ],
      "min": [
        0,
        0,
        0,
        1
      ],
      "type": "VEC4"
    },
    {
      "bufferView": 1,
      "byteOffset": 171744,
      "componentType": 5126,
      "count": 120,
      "max": [
        0.97851598262786865,
        0.5
      ],
      "min": [
        0.97851598262786865,
        0.5
      ],
      "type": "VEC2"
    },
    {
      "bufferView": 0,
      "byteOffset": 157416,
      "componentType": 5125,
      "count": 180,
      "max": [
        119
      ],
      "min": [
        0
      ],
      "type": "SCALAR"
    }
  ],
  "asset": {
    "extras": {
      "author": "NomadKing (https://sketchfab.com/nomadking)",
      "license": "CC-BY-4.0 (http://creativecommons.org/licenses/by/4.0/)",
      "source": "https://sketchfab.com/models/78e4bc6e0e7842f0b3caf0eafec32354",
      "title": "Friends Forever - Portal 2"
    },
    "generator": "Sketchfab-3.18.2",
    "version": "2.0"
  },
  "bufferViews": [
    {
      "buffer": 0,
      "byteLength": 158136,
      "byteOffset": 0,
      "name": "floatBufferViews",
      "target": 34963
    },
    {
      "buffer": 0,
      "byteLength": 172704,
      "byteOffset": 158136,
      "byteStride": 8,
      "name": "floatBufferViews",
      "target": 34962
    },
    {
      "buffer": 0,
      "byteLength": 518112,
      "byteOffset": 330840,
      "byteStride": 12,
      "name": "floatBufferViews",
      "target": 34962
    },
    {
      "buffer": 0,
      "byteLength": 345408,
      "byteOffset": 848952,
      "byteStride": 16,
      "name": "floatBufferViews",
      "target": 34962
    }
  ],
  "buffers": [
    {
      "byteLength": 1194360,
      "uri": "scene.bin"
    }
  ],
  "extensionsUsed": [
    "KHR_materials_unlit"
  ],
  "images": [
    {
      "uri": "textures/Orange_baseColor.png"
    },
    {
      "uri": "textures/Blue_baseColor.png"
    },
    {
      "uri": "textures/Pink_baseColor.png"
    },
    {
      "uri": "textures/Main_baseColor.jpg"
    }
  ],
  "materials": [
    {
      "doubleSided": true,
      "extensions": {
        "KHR_materials_unlit": {}
      },
      "name": "Blue",
      "pbrMetallicRoughness": {
        "baseColorFactor": [
          1,
          1,
          1,
          1
        ],
        "baseColorTexture": {
          "index": 1,
          "texCoord": 0
        },
        "metallicFactor": 0,
        "roughnessFactor": 1
      }
    },
    {
      "doubleSided": true,
      "extensions": {
        "KHR_materials_unlit": {}
      },
      "name": "Main",
      "pbrMetallicRoughness": {
        "baseColorFactor": [
          1,
          1,
          1,
          1
        ],
        "baseColorTexture": {
          "index": 3,
          "texCoord": 0
        },
        "metallicFactor": 0,
        "roughnessFactor": 1
      }
    },
    {
      "doubleSided": true,
      "extensions": {
        "KHR_materials_unlit": {}
      },
      "name": "Orange",
      "pbrMetallicRoughness": {
        "baseColorFactor": [
          1,
          1,
          1,
          1
        ],
        "baseColorTexture": {
          "index": 0,
          "texCoord": 0
        },
        "metallicFactor": 0,
        "roughnessFactor": 1
      }
    },
    {
      "doubleSided": true,
      "emissiveFactor": [
        1,
        0,
        1
      ],
      "extensions": {
        "KHR_materials_unlit": {}
      },
      "name": "Pink",
      "pbrMetallicRoughness": {
        "baseColorFactor": [
          1,
          1,
          1,
          1
        ],
        "baseColorTexture": {
          "index": 2,
          "texCoord": 0
        },
        "metallicFactor": 0,
        "roughnessFactor": 1
      }
    }
  ],
  "meshes": [
    {
      "primitives": [
        {
          "attributes": {
            "NORMAL": 1,
            "POSITION": 0,
            "TANGENT": 2,
            "TEXCOORD_0": 3
          },
          "indices": 4,
          "material": 0,
          "mode": 4
        }
      ]
    },
    {
      "primitives": [
        {
          "attributes": {
            "NORMAL": 6,
            "POSITION": 5,
            "TANGENT": 7,
            "TEXCOORD_0": 8
          },
          "indices": 9,
          "material": 1,
          "mode": 4
        }
      ]
    },
    {
      "primitives": [
        {
          "attributes": {
            "NORMAL": 11,
            "POSITION": 10,
            "TANGENT": 12,
            "TEXCOORD_0": 13
          },
          "indices": 14,
          "material": 2,
          "mode": 4
        }
      ]
    },
    {
      "primitives": [
        {
          "attributes": {
            "NORMAL": 16,
            "POSITION": 15,
            "TANGENT": 17,
            "TEXCOORD_0": 18
          },
          "indices": 19,
          "material": 3,
          "mode": 4
        }
      ]
    }
  ],
  "nodes": [
    {
      "children": [
        1
      ],
      "name": "RootNode (gltf orientation matrix)",
      "rotation": [
        -0.70710678118654746,
        -0,
        -0,
        0.70710678118654757
      ]
    },
    {
      "children": [
        2
      ],
      "name": "RootNode (model correction matrix)"
    },
    {
      "children": [
        3,
        4,
        5,
        6
      ],
      "name": "Portal_FInal.obj.cleaner.gles"
    },
    {
      "mesh": 0,
      "name": ""
    },
    {
      "mesh": 1,
      "name": ""
    },
    {
      "mesh": 2,
      "name": ""
    },
    {
      "mesh": 3,
      "name": ""
    }
  ],
  "samplers": [
    {
      "magFilter": 9729,
      "minFilter": 9987,
      "wrapS": 33071,
      "wrapT": 33071
    }
  ],
  "scene": 0,
  "scenes": [
    {
      "name": "OSG_Scene",
      "nodes": [
        0
      ]
    }
  ],
  "textures": [
    {
      "sampler": 0,
      "source": 0
    },
    {
      "sampler": 0,
      "source": 1
    },
    {
      "sampler": 0,
      "source": 2
    },
    {
      "sampler": 0,
      "source": 3
    }
  ]
}

